<svg xmlns="http://www.w3.org/2000/svg" xmlns:xlink="http://www.w3.org/1999/xlink" xmlns:fi="http://pattern.flaticon.com/" x="0" y="0" width="750" height="375" viewBox="0 0 2625 1312.5"><rect x="0px" y="0px" width="100%" height="100%" opacity="1" fill="#ffffff"/><defs><g transform="matrix(0.125 0 0 0.125 216 282)" id="L1_0"><path d="M280,48H120c-4.418,0-8,3.582-8,8v96c0,4.418,3.582,8,8,8h160c4.418,0,8-3.582,8-8V56C288,51.582,284.418,48,280,48z     M272,144H128V64h144V144z" fill="#e6e6e6"/><rect x="240px" y="112px" width="16px" height="16px" fill="#e6e6e6"/><rect x="208px" y="112px" width="16px" height="16px" fill="#e6e6e6"/><rect x="176px" y="112px" width="16px" height="16px" fill="#e6e6e6"/><path d="M256,272h-29.688l36.736-68.208c2.097-3.889,0.645-8.741-3.243-10.839c-2.689-1.45-5.968-1.243-8.453,0.535l-112,80    c-3.596,2.566-4.432,7.562-1.865,11.159c1.502,2.104,3.928,3.354,6.513,3.353h29.688l-36.736,68.208    c-2.097,3.889-0.645,8.741,3.243,10.839c2.689,1.45,5.968,1.243,8.453-0.535l112-80c3.596-2.566,4.432-7.562,1.865-11.159    C261.011,273.249,258.585,272,256,272z M167.368,333.48l26.76-49.688c2.094-3.89,0.638-8.742-3.252-10.836    c-1.167-0.628-2.471-0.956-3.796-0.956h-18.12l63.672-45.48l-26.76,49.688c-2.094,3.89-0.638,8.742,3.252,10.836    c1.167,0.628,2.471,0.956,3.796,0.956h18.12L167.368,333.48z" fill="#e6e6e6"/><path d="M432,40h-8V8c0-4.418-3.582-8-8-8s-8,3.582-8,8v32h-16V8c0-4.418-3.582-8-8-8s-8,3.582-8,8v32h-8c-4.418,0-8,3.582-8,8v48    c0.024,19.001,13.389,35.373,32,39.2V368c0,6.627-5.373,12-12,12c-6.627,0-12-5.373-12-12V189.184    c-0.018-11.297-6.809-21.482-17.232-25.84L328,154.52V40c-0.026-22.08-17.92-39.974-40-40H112C89.92,0.026,72.026,17.92,72,40v376    H48c-4.418,0-8,3.582-8,8v48c0,4.418,3.582,8,8,8h304c4.418,0,8-3.582,8-8v-48c0-4.418-3.582-8-8-8h-24V171.68l16.728,6.48    c4.41,1.89,7.27,6.226,7.272,11.024V368c0,15.464,12.536,28,28,28c15.464,0,28-12.536,28-28V135.2    c18.611-3.827,31.976-20.199,32-39.2V48C440,43.582,436.418,40,432,40z M88,40c0-13.255,10.745-24,24-24h176    c13.255,0,24,10.745,24,24v376H88V40z M344,432v32H56v-32H344z M424,96c0,13.255-10.745,24-24,24s-24-10.745-24-24V56h48V96z" fill="#e6e6e6"/></g><g transform="matrix(0.1171875 0 0 0.1171875 76 -7.99999958515167)" id="L1_2"><path d="M256,0C161.124,0,83.938,77.186,83.938,172.062c0,36.97,11.543,72.192,33.382,101.872l130.362,193.522    c1.864,2.767,4.982,4.426,8.318,4.426c3.337,0,6.454-1.659,8.318-4.426L394.68,273.935    c21.839-29.681,33.382-64.902,33.382-101.872C428.062,77.186,350.876,0,256,0z M378.37,262.257    c-0.126,0.171-0.249,0.349-0.366,0.532L256,443.901L134.017,262.818c-0.122-0.192-0.251-0.378-0.386-0.562    c-19.387-26.256-29.634-57.444-29.634-90.195c0-83.814,68.189-152.002,152.003-152.002s152.003,68.189,152.003,152.003    C408.003,204.812,397.756,236.001,378.37,262.257z" fill="#e6e6e6"/><path d="M326.206,160.972c-5.539,0-10.029,4.49-10.029,10.029c0,33.181-26.995,60.176-60.176,60.176s-60.176-26.995-60.176-60.176    s26.995-60.176,60.176-60.176c12.06,0,23.692,3.552,33.639,10.271c4.59,3.101,10.824,1.894,13.925-2.696    c3.101-4.589,1.894-10.824-2.696-13.925C287.593,95.507,272.078,90.766,256,90.766c-44.242,0-80.235,35.993-80.235,80.235    s35.993,80.235,80.235,80.235c44.242,0,80.235-35.993,80.235-80.235C336.235,165.462,331.745,160.972,326.206,160.972z" fill="#e6e6e6"/><path d="M376.185,491.941H135.48c-5.539,0-10.029,4.49-10.029,10.029c0,5.539,4.49,10.029,10.029,10.029h240.705    c5.539,0,10.029-4.49,10.029-10.029C386.215,496.431,381.724,491.941,376.185,491.941z" fill="#e6e6e6"/><path d="M318.182,127.98h-0.201c-5.539,0-10.029,4.49-10.029,10.029c0,5.539,4.49,10.029,10.029,10.029h0.201    c5.539,0,10.029-4.49,10.029-10.029C328.212,132.47,323.721,127.98,318.182,127.98z" fill="#e6e6e6"/></g><path d="M462.6,214.404l-39.2-17.9l-34.6-55.2c-10-16-27.6-25.7-46.5-25.6H194.9c-17.1,0-33.3,7.9-43.7,21.5l-44.7,58.5    l-74.5,20.4c-18.9,5.2-32,22.5-32,42.1v28.5c0,24.1,19.2,44,43.3,44h6.4c7.7,29.7,38,47.5,67.7,39.8c19.5-5.1,34.8-20.3,39.8-39.8    h168c7.7,29.7,38,47.5,67.7,39.8c19.5-5.1,34.8-20.3,39.8-39.8h12c24.1,0,43.3-19.9,43.3-44v-32.5    C488.1,237.104,478.1,221.504,462.6,214.404z M103.4,352.104c-19.6,0-35.5-15.9-35.5-35.5c0-19.6,15.9-35.5,35.5-35.5    c19.6,0,35.5,15.9,35.5,35.5C139,336.104,123.1,352.004,103.4,352.104z M378.9,352.104c-19.6,0-35.5-15.9-35.5-35.5    c0-19.6,15.9-35.5,35.5-35.5s35.5,15.9,35.5,35.5C414.5,336.104,398.6,352.004,378.9,352.104z M444.7,310.704h-10.6    c-3.3-30.5-30.8-52.5-61.3-49.1c-25.9,2.8-46.3,23.3-49.1,49.1H158.6c-3.3-30.5-30.8-52.5-61.3-49.1    c-25.9,2.8-46.3,23.3-49.1,49.1h-5c-13.1,0-23.3-10.9-23.3-24v-28.5c-0.1-10.7,7-20,17.3-22.9l77.9-21.3c2.1-0.6,4-1.8,5.3-3.6    l46.6-61.1c6.7-8.6,17-13.6,27.9-13.6h147.4c12-0.1,23.3,6,29.6,16.2l36.2,57.8c1,1.7,2.6,3,4.3,3.8l41.8,19.1    c8.4,3.9,13.8,12.3,13.7,21.6v32.5h0.1C468,299.804,457.8,310.704,444.7,310.704z" transform="matrix(0.12295056879520416 0 0 0.12295056879520416 74 162.99998973410857)" id="L1_5" fill="#e6e6e6"/><g transform="matrix(0.1293279081583023 0 0 0.1293279081583023 217 104.0000106089301)" id="L1_6"><path d="M460.414,216.518l-85.6-73.1c0.1-0.5,0.2-1,0.3-1.6v-95.6c-0.1-5.7-4.6-10.3-10.3-10.5h-47.8c-5.5,0-10,4.9-10,10.5v39.6    l-68.5-58.4c-3.7-3.2-9.2-3.2-13,0l-221.9,189c-4.3,3.5-4.8,9.8-1.3,14.1s9.8,4.8,14.1,1.3c0.1-0.1,0.1-0.1,0.2-0.2l215.4-183.4    l77.1,65.7l46.1,39.2l92.3,78.6c4.2,3.6,10.5,3.1,14.1-1.1C465.114,226.418,464.614,220.118,460.414,216.518z M355.014,126.518    l-28-23.6v-47.1h28V126.518z" fill="#e6e6e6"/><path d="M416.314,236.718l-28.1-24l-149.7-127.9c-3.7-3.2-9.2-3.2-13,0l-149.7,127.9l-28.1,24c-4.2,3.6-4.7,9.9-1.1,14.1    c3.5,4.2,9.7,4.7,13.8,1.2l0.1-0.1l12.5-10.8v187.5c0.1,5.6,4.7,10.2,10.3,10.3h297.3c5.6-0.1,10.2-4.6,10.3-10.3v-187.5    l12.5,10.8c1.8,1.5,4,2.4,6.4,2.4c2.9,0,5.7-1.3,7.6-3.5C421.114,246.518,420.514,240.218,416.314,236.718z M272.014,418.818h-80    v-108h80V418.818z M292.014,418.818v-117.7c0-5.5-4.1-10.3-9.6-10.3h-100.8c-5.5,0-9.6,4.8-9.6,10.3v117.7h-79v-194.8l139-118.4    l139,118.4v194.8H292.014z" fill="#e6e6e6"/></g></defs><g fi:class="KUsePattern" opacity="0.5"><pattern id="pattern_L1_0" width="350" height="350" patternUnits="userSpaceOnUse"><use xlink:href="#L1_0" x="-350" y="-350"/><use xlink:href="#L1_0" x="0" y="-350"/><use xlink:href="#L1_0" x="350" y="-350"/><use xlink:href="#L1_0" x="-350" y="0"/><use xlink:href="#L1_0" x="0" y="0"/><use xlink:href="#L1_0" x="350" y="0"/><use xlink:href="#L1_0" x="-350" y="350"/><use xlink:href="#L1_0" x="0" y="350"/><use xlink:href="#L1_0" x="350" y="350"/></pattern><rect x="0" y="0" width="100%" height="100%" fill="url(#pattern_L1_0)"/></g><g fi:class="KUsePattern" opacity="0.5"><pattern id="pattern_L1_2" width="350" height="350" patternUnits="userSpaceOnUse"><use xlink:href="#L1_2" x="-350" y="-350"/><use xlink:href="#L1_2" x="0" y="-350"/><use xlink:href="#L1_2" x="350" y="-350"/><use xlink:href="#L1_2" x="-350" y="0"/><use xlink:href="#L1_2" x="0" y="0"/><use xlink:href="#L1_2" x="350" y="0"/><use xlink:href="#L1_2" x="-350" y="350"/><use xlink:href="#L1_2" x="0" y="350"/><use xlink:href="#L1_2" x="350" y="350"/></pattern><rect x="0" y="0" width="100%" height="100%" fill="url(#pattern_L1_2)"/></g><g fi:class="KUsePattern" opacity="0.5"><pattern id="pattern_L1_5" width="350" height="350" patternUnits="userSpaceOnUse"><use xlink:href="#L1_5" x="-350" y="-350"/><use xlink:href="#L1_5" x="0" y="-350"/><use xlink:href="#L1_5" x="350" y="-350"/><use xlink:href="#L1_5" x="-350" y="0"/><use xlink:href="#L1_5" x="0" y="0"/><use xlink:href="#L1_5" x="350" y="0"/><use xlink:href="#L1_5" x="-350" y="350"/><use xlink:href="#L1_5" x="0" y="350"/><use xlink:href="#L1_5" x="350" y="350"/></pattern><rect x="0" y="0" width="100%" height="100%" fill="url(#pattern_L1_5)"/></g><g fi:class="KUsePattern" opacity="0.5"><pattern id="pattern_L1_6" width="350" height="350" patternUnits="userSpaceOnUse"><use xlink:href="#L1_6" x="-350" y="-350"/><use xlink:href="#L1_6" x="0" y="-350"/><use xlink:href="#L1_6" x="350" y="-350"/><use xlink:href="#L1_6" x="-350" y="0"/><use xlink:href="#L1_6" x="0" y="0"/><use xlink:href="#L1_6" x="350" y="0"/><use xlink:href="#L1_6" x="-350" y="350"/><use xlink:href="#L1_6" x="0" y="350"/><use xlink:href="#L1_6" x="350" y="350"/></pattern><rect x="0" y="0" width="100%" height="100%" fill="url(#pattern_L1_6)"/></g></svg>